<svg width="48" height="48" viewBox="0 0 48 48" fill="none" xmlns="http://www.w3.org/2000/svg">
<rect width="48" height="48" rx="8.88889" fill="#0047FF"/>
<path d="M23.1111 8.88892C27.04 8.88892 30.2222 12.0711 30.2222 16C30.2222 18.6667 28.8 20.9245 26.6667 22.1511V19.9822C27.7511 19.0045 28.4445 17.5822 28.4445 16C28.4445 13.0489 26.0622 10.6667 23.1111 10.6667C20.16 10.6667 17.7778 13.0489 17.7778 16C17.7778 17.5822 18.4711 19.0045 19.5556 19.9822V22.1511C17.4222 20.9245 16 18.6667 16 16C16 12.0711 19.1822 8.88892 23.1111 8.88892ZM35.5556 36.4445C35.5022 37.9022 34.3467 39.0578 32.8889 39.1111H23.1111C22.4356 39.1111 21.7956 38.8445 21.3333 38.3467L14.2222 30.88L15.5378 29.5111C15.8756 29.1378 16.3556 28.9422 16.8889 28.9422H17.2445L21.3333 32V16C21.3333 15.0222 22.1333 14.2222 23.1111 14.2222C24.0889 14.2222 24.8889 15.0222 24.8889 16V23.9467L27.04 24.1778L34.0445 28.0711C34.9867 28.4978 35.5556 29.44 35.5556 30.4711V36.4445Z" fill="#D9F1FF"/>
</svg>
