<svg width="48" height="48" viewBox="0 0 48 48" fill="none" xmlns="http://www.w3.org/2000/svg">
<path d="M36.1944 13.943L33.6353 16.5021H37.2544H44.9896C45.3872 16.5021 45.7685 16.66 46.0496 16.9411C46.3307 17.2223 46.4887 17.6036 46.4887 18.0011C46.4887 18.3987 46.3307 18.78 46.0496 19.0612C45.7685 19.3423 45.3872 19.5002 44.9896 19.5002H29.9989C29.6013 19.5002 29.22 19.3423 28.9388 19.0612C28.6577 18.78 28.4998 18.3987 28.4998 18.0011V3.01041C28.4998 2.61284 28.6577 2.23154 28.9388 1.95041C29.22 1.66928 29.6013 1.51134 29.9989 1.51134C30.3964 1.51134 30.7777 1.66928 31.0589 1.95041C31.34 2.23154 31.4979 2.61284 31.4979 3.01041V10.7157V14.327L34.0554 11.7773L43.9193 1.94335L43.9209 1.94174C44.2043 1.6583 44.5888 1.49907 44.9896 1.49907C45.3904 1.49907 45.7748 1.6583 46.0583 1.94174C46.3417 2.22517 46.5009 2.60958 46.5009 3.01041C46.5009 3.41124 46.3417 3.79566 46.0583 4.07909L36.1944 13.943ZM11.7824 34.0503L14.3321 31.4928H10.7208H3.01553C2.61795 31.4928 2.23666 31.3349 1.95553 31.0537C1.6744 30.7726 1.51646 30.3913 1.51646 29.9937C1.51646 29.5962 1.67439 29.2149 1.95553 28.9337C2.23666 28.6526 2.61796 28.4947 3.01553 28.4947H18.0063C18.4038 28.4947 18.7851 28.6526 19.0663 28.9337C19.3474 29.2149 19.5053 29.5962 19.5053 29.9937V44.9845C19.5053 45.382 19.3474 45.7633 19.0663 46.0445C18.7851 46.3256 18.4038 46.4835 18.0063 46.4835C17.6087 46.4835 17.2274 46.3256 16.9463 46.0445C16.6651 45.7633 16.5072 45.382 16.5072 44.9845V37.2492V33.6302L13.9481 36.1892L4.0842 46.0531L4.07987 46.0575C3.94051 46.198 3.77471 46.3095 3.59204 46.3856C3.40937 46.4617 3.21343 46.5009 3.01553 46.5009C2.81763 46.5009 2.62169 46.4617 2.43902 46.3856C2.25636 46.3095 2.09056 46.198 1.95119 46.0575L1.95122 46.0575L1.9425 46.0488C1.80199 45.9094 1.69047 45.7436 1.61436 45.561C1.53826 45.3783 1.49907 45.1824 1.49907 44.9845C1.49907 44.7866 1.53826 44.5906 1.61436 44.408C1.69047 44.2253 1.80199 44.0595 1.94251 43.9201L1.94846 43.9142L11.7824 34.0503Z" fill="#0094FF" stroke="#0094FF" stroke-width="2.99815"/>
</svg>
