<svg width="48" height="43" viewBox="0 0 48 43" fill="none" xmlns="http://www.w3.org/2000/svg">
<path d="M40.8889 13.76C40.8889 14.4107 40.6304 15.0347 40.1703 15.4948C39.7102 15.9549 39.0862 16.2133 38.4356 16.2133H2.45333C1.80267 16.2133 1.17865 15.9549 0.718565 15.4948C0.258476 15.0347 0 14.4107 0 13.76C0 13.1093 0.258476 12.4853 0.718565 12.0252C1.17865 11.5651 1.80267 11.3067 2.45333 11.3067H38.4356C39.0862 11.3067 39.7102 11.5651 40.1703 12.0252C40.6304 12.4853 40.8889 13.1093 40.8889 13.76ZM2.45333 4.90667H38.4356C39.0862 4.90667 39.7102 4.64819 40.1703 4.1881C40.6304 3.72801 40.8889 3.104 40.8889 2.45333C40.8889 1.80267 40.6304 1.17865 40.1703 0.718564C39.7102 0.258475 39.0862 0 38.4356 0H2.45333C1.80267 0 1.17865 0.258475 0.718565 0.718564C0.258476 1.17865 0 1.80267 0 2.45333C0 3.104 0.258476 3.72801 0.718565 4.1881C1.17865 4.64819 1.80267 4.90667 2.45333 4.90667ZM38.4356 24.3911H2.45333C1.80267 24.3911 1.17865 24.6496 0.718565 25.1097C0.258476 25.5698 0 26.1938 0 26.8444C0 27.4951 0.258476 28.1191 0.718565 28.5792C1.17865 29.0393 1.80267 29.2978 2.45333 29.2978H38.4356C39.0862 29.2978 39.7102 29.0393 40.1703 28.5792C40.6304 28.1191 40.8889 27.4951 40.8889 26.8444C40.8889 26.1938 40.6304 25.5698 40.1703 25.1097C39.7102 24.6496 39.0862 24.3911 38.4356 24.3911Z" fill="#0047FF"/>
<path d="M2.45333 36.8356H38.4356C39.0862 36.8356 39.7102 37.094 40.1703 37.5541C40.6304 38.0142 40.8889 38.6382 40.8889 39.2889C40.8889 39.9396 40.6304 40.5636 40.1703 41.0237C39.7102 41.4837 39.0862 41.7422 38.4356 41.7422H2.45333C1.80267 41.7422 1.17865 41.4837 0.718565 41.0237C0.258476 40.5636 0 39.9396 0 39.2889C0 38.6382 0.258476 38.0142 0.718565 37.5541C1.17865 37.094 1.80267 36.8356 2.45333 36.8356Z" fill="#0047FF"/>
<rect opacity="0.5" x="42.6667" width="3.55556" height="42.6667" rx="1.77778" fill="#0047FF"/>
</svg>
