<svg width="48" height="48" viewBox="0 0 48 48" fill="none" xmlns="http://www.w3.org/2000/svg">
<path d="M47.0572 23.0572C47.5779 23.5779 47.5779 24.4221 47.0572 24.9428L39.6095 32.3905C38.7695 33.2305 37.3333 32.6356 37.3333 31.4477V28C37.3333 27.2636 36.7364 26.6667 36 26.6667H28C27.2636 26.6667 26.6667 27.2636 26.6667 28V36C26.6667 36.7364 27.2636 37.3333 28 37.3333H31.4477C32.6356 37.3333 33.2305 38.7695 32.3905 39.6095L24.9428 47.0572C24.4221 47.5779 23.5779 47.5779 23.0572 47.0572L15.6095 39.6095C14.7695 38.7695 15.3644 37.3333 16.5523 37.3333H20C20.7364 37.3333 21.3333 36.7364 21.3333 36V28C21.3333 27.2636 20.7364 26.6667 20 26.6667H12C11.2636 26.6667 10.6667 27.2636 10.6667 28V31.4477C10.6667 32.6356 9.23048 33.2305 8.39052 32.3905L0.942809 24.9428C0.42211 24.4221 0.42211 23.5779 0.942809 23.0572L8.39052 15.6095C9.23047 14.7695 10.6667 15.3644 10.6667 16.5523V20C10.6667 20.7364 11.2636 21.3333 12 21.3333H20C20.7364 21.3333 21.3333 20.7364 21.3333 20V12C21.3333 11.2636 20.7364 10.6667 20 10.6667H16.5523C15.3644 10.6667 14.7695 9.23048 15.6095 8.39052L23.0572 0.942809C23.5779 0.42211 24.4221 0.42211 24.9428 0.942809L32.3905 8.39052C33.2305 9.23047 32.6356 10.6667 31.4477 10.6667H28C27.2636 10.6667 26.6667 11.2636 26.6667 12V20C26.6667 20.7364 27.2636 21.3333 28 21.3333H36C36.7364 21.3333 37.3333 20.7364 37.3333 20V16.5523C37.3333 15.3644 38.7695 14.7695 39.6095 15.6095L47.0572 23.0572Z" fill="#0094FF"/>
</svg>
