<svg width="48" height="48" viewBox="0 0 48 48" fill="none" xmlns="http://www.w3.org/2000/svg">
<path fill-rule="evenodd" clip-rule="evenodd" d="M24 0C17.6348 0 11.5303 2.52856 7.02944 7.02944C2.52856 11.5303 0 17.6348 0 24C0 30.3652 2.52856 36.4697 7.02944 40.9706C11.5303 45.4714 17.6348 48 24 48C30.3652 48 36.4697 45.4714 40.9706 40.9706C45.4714 36.4697 48 30.3652 48 24C48 17.6348 45.4714 11.5303 40.9706 7.02944C36.4697 2.52856 30.3652 0 24 0ZM3.44255 24C3.44255 18.5478 5.60842 13.319 9.46369 9.46369C13.319 5.60842 18.5478 3.44255 24 3.44255C29.4522 3.44255 34.681 5.60842 38.5363 9.46369C42.3916 13.319 44.5575 18.5478 44.5575 24C44.5575 29.4522 42.3916 34.681 38.5363 38.5363C34.681 42.3916 29.4522 44.5575 24 44.5575C18.5478 44.5575 13.319 42.3916 9.46369 38.5363C5.60842 34.681 3.44255 29.4522 3.44255 24ZM24 31.2475C25.9221 31.2475 27.7656 30.4839 29.1247 29.1247C30.4839 27.7656 31.2475 25.9221 31.2475 24C31.2475 22.0779 30.4839 20.2344 29.1247 18.8753C27.7656 17.5161 25.9221 16.7525 24 16.7525C22.0779 16.7525 20.2344 17.5161 18.8753 18.8753C17.5161 20.2344 16.7525 22.0779 16.7525 24C16.7525 25.9221 17.5161 27.7656 18.8753 29.1247C20.2344 30.4839 22.0779 31.2475 24 31.2475Z" fill="#0047FF"/>
</svg>
