<svg width="44" height="48" viewBox="0 0 44 48" fill="none" xmlns="http://www.w3.org/2000/svg">
<path fill-rule="evenodd" clip-rule="evenodd" d="M12 0H11.8416C9.7152 0 7.8816 3.57628e-08 6.4128 0.1968C4.8408 0.408 3.3312 0.8856 2.1096 2.1096C0.8856 3.3336 0.408 4.8408 0.1968 6.4128C3.57628e-08 7.8816 0 9.7152 0 11.8416V14.28C0 14.9165 0.252856 15.527 0.702944 15.9771C1.15303 16.4271 1.76348 16.68 2.4 16.68C3.03652 16.68 3.64697 16.4271 4.09706 15.9771C4.54714 15.527 4.8 14.9165 4.8 14.28V12C4.8 9.6696 4.8048 8.1624 4.9536 7.0536C5.0952 6.012 5.3208 5.6856 5.5032 5.5032C5.6856 5.3208 6.012 5.0952 7.0536 4.9536C8.16 4.8048 9.6696 4.8 12 4.8H31.2C33.5304 4.8 35.0376 4.8048 36.1464 4.9536C37.188 5.0952 37.5144 5.3208 37.6968 5.5032C37.8792 5.6856 38.1048 6.012 38.2464 7.0536C38.3952 8.16 38.4 9.6696 38.4 12V14.28C38.4 14.9165 38.6529 15.527 39.1029 15.9771C39.553 16.4271 40.1635 16.68 40.8 16.68C41.4365 16.68 42.047 16.4271 42.4971 15.9771C42.9471 15.527 43.2 14.9165 43.2 14.28V11.8416C43.2 9.7152 43.2 7.8816 43.0032 6.4128C42.792 4.8408 42.3144 3.3312 41.0904 2.1096C39.8664 0.8856 38.3592 0.408 36.7872 0.1968C35.3184 3.57628e-08 33.4848 0 31.3584 0H12Z" fill="#0047FF"/>
<path opacity="0.5" d="M24 4.80005H19.2V43.2001H24V4.80005Z" fill="#0047FF"/>
<path fill-rule="evenodd" clip-rule="evenodd" d="M7.19998 45.6C7.19998 44.9635 7.45284 44.353 7.90293 43.903C8.35301 43.4529 8.96346 43.2 9.59998 43.2H33.6C34.2365 43.2 34.847 43.4529 35.297 43.903C35.7471 44.353 36 44.9635 36 45.6C36 46.2365 35.7471 46.847 35.297 47.2971C34.847 47.7472 34.2365 48 33.6 48H9.59998C8.96346 48 8.35301 47.7472 7.90293 47.2971C7.45284 46.847 7.19998 46.2365 7.19998 45.6Z" fill="#0047FF"/>
</svg>
