<svg width="48" height="48" viewBox="0 0 48 48" fill="none" xmlns="http://www.w3.org/2000/svg">
<path d="M48 10.6667V0H37.3333V2.66667H10.6667V0H0V10.6667H2.66667V37.3333H0V48H10.6667V45.3333H37.3333V48H48V37.3333H45.3333V10.6667H48ZM40 2.66667H45.3333V8H40V2.66667ZM2.66667 2.66667H8V8H2.66667V2.66667ZM8 45.3333H2.66667V40H8V45.3333ZM45.3333 45.3333H40V40H45.3333V45.3333ZM40 37.3333H37.3333V40H10.6667V37.3333H8V10.6667H10.6667V8H37.3333V10.6667H40V37.3333ZM34.6667 13.3333V18.6667H26.6667V34.6667H21.3333V18.6667H13.3333V13.3333H34.6667Z" fill="#0047FF"/>
</svg>
