<svg width="48" height="48" viewBox="0 0 48 48" fill="none" xmlns="http://www.w3.org/2000/svg">
<path d="M7.57895 0H40.4211C42.4311 0 44.3588 0.798494 45.7802 2.21982C47.2015 3.64115 48 5.56889 48 7.57895V40.4211C48 42.4311 47.2015 44.3588 45.7802 45.7802C44.3588 47.2015 42.4311 48 40.4211 48H7.57895C5.56889 48 3.64115 47.2015 2.21982 45.7802C0.798494 44.3588 0 42.4311 0 40.4211V7.57895C0 5.56889 0.798494 3.64115 2.21982 2.21982C3.64115 0.798494 5.56889 0 7.57895 0ZM7.57895 2.52632C6.23891 2.52632 4.95375 3.05864 4.0062 4.0062C3.05864 4.95375 2.52632 6.23891 2.52632 7.57895V15.1579H15.1579V2.52632H7.57895ZM2.52632 40.4211C2.52632 41.7611 3.05864 43.0462 4.0062 43.9938C4.95375 44.9414 6.23891 45.4737 7.57895 45.4737H15.1579V32.8421H2.52632V40.4211ZM15.1579 17.6842H2.52632V30.3158H15.1579V17.6842ZM40.4211 45.4737C41.7611 45.4737 43.0462 44.9414 43.9938 43.9938C44.9414 43.0462 45.4737 41.7611 45.4737 40.4211V32.8421H32.8421V45.4737H40.4211ZM45.4737 17.6842H32.8421V30.3158H45.4737V17.6842ZM45.4737 7.57895C45.4737 6.23891 44.9414 4.95375 43.9938 4.0062C43.0462 3.05864 41.7611 2.52632 40.4211 2.52632H32.8421V15.1579H45.4737V7.57895ZM17.6842 2.52632V15.1579H30.3158V2.52632H17.6842ZM17.6842 45.4737H30.3158V32.8421H17.6842V45.4737ZM30.3158 17.6842H17.6842V30.3158H30.3158V17.6842Z" fill="#0047FF"/>
</svg>
