<svg width="48" height="48" viewBox="0 0 48 48" fill="none" xmlns="http://www.w3.org/2000/svg">
<path d="M37.8454 9.33482C37.8454 11.0903 36.4223 12.5134 34.6669 12.5134C32.9114 12.5134 31.4883 11.0903 31.4883 9.33482C31.4883 7.57934 32.9114 6.15625 34.6669 6.15625C36.4223 6.15625 37.8454 7.57934 37.8454 9.33482Z" fill="#FFC700" stroke="#EBAC0C" stroke-width="0.5"/>
<path d="M6.85714 1.77778H41.1429C42.49 1.77778 43.7819 2.31292 44.7345 3.26549C45.6871 4.21806 46.2222 5.51001 46.2222 6.85714V41.1429C46.2222 42.49 45.6871 43.7819 44.7345 44.7345C43.7819 45.6871 42.49 46.2222 41.1429 46.2222H6.85714C5.51001 46.2222 4.21806 45.6871 3.26549 44.7345C2.31292 43.7819 1.77778 42.49 1.77778 41.1429V6.85714C1.77778 5.51001 2.31292 4.21806 3.26549 3.26549C4.21806 2.31292 5.51001 1.77778 6.85714 1.77778Z" stroke="#0047FF" stroke-width="3.55556" stroke-linecap="round" stroke-linejoin="round"/>
<path opacity="0.5" d="M42.6667 32L34.6667 24L26.6667 31.96M37.3333 42.6667L13.3333 18.6667L5.33333 26.6667" stroke="#0047FF" stroke-width="2.66667" stroke-linecap="round" stroke-linejoin="round"/>
</svg>
