<svg width="44" height="48" viewBox="0 0 44 48" fill="none" xmlns="http://www.w3.org/2000/svg">
<path d="M40.2234 21.3159L42.971 22.9626C43.1404 23.064 43.2806 23.2076 43.3779 23.3793C43.4753 23.551 43.5265 23.745 43.5265 23.9424C43.5265 24.1398 43.4753 24.3339 43.3779 24.5056C43.2806 24.6773 43.1404 24.8209 42.971 24.9223L21.7621 37.644L0.555405 24.9223C0.38604 24.8209 0.245848 24.6773 0.148507 24.5056C0.0511662 24.3339 0 24.1398 0 23.9424C0 23.745 0.0511662 23.551 0.148507 23.3793C0.245848 23.2076 0.38604 23.064 0.555405 22.9626L3.30074 21.3159L21.7621 32.3931L40.2234 21.3159ZM40.2234 32.0505L42.971 33.6973C43.1404 33.7987 43.2806 33.9422 43.3779 34.114C43.4753 34.2857 43.5265 34.4797 43.5265 34.6771C43.5265 34.8745 43.4753 35.0685 43.3779 35.2403C43.2806 35.412 43.1404 35.5555 42.971 35.6569L22.936 47.6752C22.5813 47.8877 22.1756 48 21.7621 48C21.3486 48 20.9428 47.8877 20.5881 47.6752L0.555405 35.6592C0.38604 35.5578 0.245848 35.4143 0.148507 35.2425C0.0511662 35.0708 0 34.8768 0 34.6794C0 34.482 0.0511662 34.288 0.148507 34.1163C0.245848 33.9445 0.38604 33.801 0.555405 33.6996L3.30074 32.0528L21.7621 43.1278L40.2234 32.0505ZM22.9383 0.32389L42.9688 12.3422C43.1381 12.4435 43.2783 12.5871 43.3757 12.7588C43.473 12.9306 43.5242 13.1246 43.5242 13.322C43.5242 13.5194 43.473 13.7134 43.3757 13.8851C43.2783 14.0568 43.1381 14.2004 42.9688 14.3018L21.7621 27.0235L0.555405 14.3041C0.38604 14.2027 0.245848 14.0591 0.148507 13.8874C0.0511662 13.7157 0 13.5217 0 13.3243C0 13.1269 0.0511662 12.9328 0.148507 12.7611C0.245848 12.5894 0.38604 12.4458 0.555405 12.3444L20.5858 0.326173C20.9411 0.112751 21.3477 0 21.7621 0C22.1765 0 22.5831 0.110467 22.9383 0.32389Z" fill="#0047FF"/>
</svg>
