<svg width="42" height="48" viewBox="0 0 42 48" fill="none" xmlns="http://www.w3.org/2000/svg">
<path d="M10.5 27C7.71523 27 5.04451 28.1062 3.07538 30.0754C1.10625 32.0445 0 34.7152 0 37.5C0 40.2848 1.10625 42.9555 3.07538 44.9246C5.04451 46.8938 7.71523 48 10.5 48H31.5C34.2848 48 36.9555 46.8938 38.9246 44.9246C40.8938 42.9555 42 40.2848 42 37.5C42 34.7152 40.8938 32.0445 38.9246 30.0754C36.9555 28.1062 34.2848 27 31.5 27H10.5ZM31.5 45C29.5109 45 27.6032 44.2098 26.1967 42.8033C24.7902 41.3968 24 39.4891 24 37.5C24 35.5109 24.7902 33.6032 26.1967 32.1967C27.6032 30.7902 29.5109 30 31.5 30C33.4891 30 35.3968 30.7902 36.8033 32.1967C38.2098 33.6032 39 35.5109 39 37.5C39 39.4891 38.2098 41.3968 36.8033 42.8033C35.3968 44.2098 33.4891 45 31.5 45ZM10.5 3C8.51088 3 6.60322 3.79018 5.1967 5.1967C3.79018 6.60322 3 8.51088 3 10.5C3 12.4891 3.79018 14.3968 5.1967 15.8033C6.60322 17.2098 8.51088 18 10.5 18C12.4891 18 14.3968 17.2098 15.8033 15.8033C17.2098 14.3968 18 12.4891 18 10.5C18 8.51088 17.2098 6.60322 15.8033 5.1967C14.3968 3.79018 12.4891 3 10.5 3ZM17.85 3C18.8475 3.97776 19.6399 5.14473 20.1808 6.43256C20.7217 7.72039 21.0002 9.10319 21 10.5C21.0002 11.8968 20.7217 13.2796 20.1808 14.5674C19.6399 15.8553 18.8475 17.0222 17.85 18H31.5C33.4891 18 35.3968 17.2098 36.8033 15.8033C38.2098 14.3968 39 12.4891 39 10.5C39 8.51088 38.2098 6.60322 36.8033 5.1967C35.3968 3.79018 33.4891 3 31.5 3H17.85ZM10.5 0H31.5C34.2848 0 36.9555 1.10625 38.9246 3.07538C40.8938 5.04451 42 7.71523 42 10.5C42 13.2848 40.8938 15.9555 38.9246 17.9246C36.9555 19.8938 34.2848 21 31.5 21H10.5C7.71523 21 5.04451 19.8938 3.07538 17.9246C1.10625 15.9555 0 13.2848 0 10.5C0 7.71523 1.10625 5.04451 3.07538 3.07538C5.04451 1.10625 7.71523 0 10.5 0Z" fill="#0047FF"/>
</svg>
